<svg xmlns="http://www.w3.org/2000/svg" viewBox="0 0 48 48" fill="none" aria-hidden="true">
  <!-- Placeholder del isotipo "mano" de Directors (reemplazar por el ícono real exportado del .ai: FERTIL WEB/PNGS/ILUSTRACIONES) -->
  <path d="M24 6c1.6 0 2.8 1.3 2.8 3v9.4c0 .5.6.8 1 .4l5.2-5.9c1.1-1.2 3-1.3 4.1-.2 1.1 1.1 1.1 2.8.1 4l-6 7.1c-.4.5 0 1.2.6 1.1l7.4-1.4c1.6-.3 3.1.8 3.3 2.4.2 1.6-.9 3.1-2.5 3.3l-8.4 1.3c-2.7.4-4.7 2.7-4.7 5.4v.8c0 1.7-1.3 3-3 3h-9c-1.7 0-3-1.3-3-3v-1.1c0-2.6-1.9-4.9-4.5-5.3l-8-1.2c-1.6-.2-2.7-1.7-2.5-3.3.2-1.6 1.7-2.7 3.3-2.4l6.8 1.3c.6.1 1-.6.6-1.1l-5.6-6.6c-1-1.2-1-2.9.1-4 1.1-1.1 3-1 4.1.2l4.8 5.4c.4.4 1 .1 1-.4V9c0-1.7 1.2-3 2.8-3z" fill="currentColor"/>
  <circle cx="24" cy="27" r="2.6" fill="currentColor"/>
</svg>
